General
Complete name                            : The Spirit (HD 1080p).m4v
Format                                   : MPEG-4
Codec ID                                 : M4V 
File size                                : 8.88 GiB
Duration                                 : 1h 42mn
Overall bit rate mode                    : Variable
Overall bit rate                         : 12.4 Mbps
Movie name                               : The Spirit
Performer                                : Gabriel Macht, Scarlett Johansson, Samuel L. Jackson, Eva Mendes, Paz Vega, Jaime King, Dan Lauria, Sarah Paulson, Stana Katic, Frank Miller, Eric Balfour
Genre                                    : Action, Comedy, Thriller, Crime, Science Fiction
Recorded date                            : 2008-12-25
Encoded date                             : UTC 2013-01-06 22:38:19
Tagged date                              : UTC 2013-02-16 02:04:13
Cover                                    : Yes
desc                                     : Down these mean streets a man must come. A hero born, murdered, and born again. When a Rookie cop named Denny Colt returns from the beyond as The Spirit, a hero whose mission is to fight against the bad forces from the shadows of Central City, the Octopus who kills anyone unfortunate enough to see his face who has other plans. He's going to wipe out the entire city.

Video #1
ID                                       : 1
Format                                   : AVC
Format/Info                              : Advanced Video Codec
Format profile                           : High@L4.1
Format settings, CABAC                   : Yes
Format settings, ReFrames                : 3 frames
Codec ID                                 : avc1
Codec ID/Info                            : Advanced Video Coding
Duration                                 : 1h 42mn
Bit rate mode                            : Variable
Bit rate                                 : 12.4 Mbps
Width                                    : 1 920 pixels
Height                                   : 800 pixels
Display aspect ratio                     : 2.40:1
Frame rate mode                          : Variable
Frame rate                               : 23.976 fps
Minimum frame rate                       : 23.810 fps
Maximum frame rate                       : 24.390 fps
Color space                              : YUV
Chroma subsampling                       : 4:2:0
Bit depth                                : 8 bits
Scan type                                : Progressive
Bits/(Pixel*Frame)                       : 0.336
Stream size                              : 8.87 GiB (100%)
Writing library                          : x264 core 119 r2106 07efeb4
Encoding settings                        : cabac=1 / ref=4 / deblock=1:-3:-3 / analyse=0x3:0x133 / me=esa / subme=10 / psy=1 / psy_rd=0.70:0.00 / mixed_ref=1 / me_range=32 / chroma_me=1 / trellis=2 / 8x8dct=1 / cqm=2 / deadzone=21,11 / fast_pskip=0 / chroma_qp_offset=-2 / threads=6 / sliced_threads=0 / nr=0 / decimate=0 / interlaced=0 / bluray_compat=0 / constrained_intra=0 / bframes=6 / b_pyramid=1 / b_adapt=2 / b_bias=0 / direct=3 / weightb=1 / open_gop=0 / weightp=2 / keyint=250 / keyint_min=15 / scenecut=40 / intra_refresh=0 / rc=2pass / mbtree=0 / bitrate=12360 / ratetol=1.0 / qcomp=0.60 / qpmin=9 / qpmax=30 / qpstep=4 / cplxblur=20.0 / qblur=0.5 / ip_ratio=1.40 / pb_ratio=1.30 / aq=1:0.80
Language                                 : English
Encoded date                             : UTC 2013-01-06 22:38:19
Tagged date                              : UTC 2013-01-06 22:44:13

Audio
ID                                       : 2
Format                                   : AAC
Format/Info                              : Advanced Audio Codec
Format profile                           : LC
Codec ID                                 : 40
Duration                                 : 320ms
Bit rate mode                            : Constant
Bit rate                                 : 235 Kbps
Channel(s)                               : 2 channels
Channel positions                        : Front: L R
Sampling rate                            : 48.0 KHz
Compression mode                         : Lossy
Delay relative to video                  : 84ms
Stream size                              : 9.16 KiB (0%)
Language                                 : English
Encoded date                             : UTC 2013-01-06 22:38:19
Tagged date                              : UTC 2013-01-06 22:44:14